<?xml version="1.0" encoding="utf-8"?>
<svg width="512px" height="512px" viewBox="0 0 512 512" version="1.1" xmlns:xlink="http://www.w3.org/1999/xlink" xmlns="http://www.w3.org/2000/svg">
  <defs>
    <path d="M512 0L512 0L512 512L0 512L0 0L512 0Z" id="path_1" />
    <clipPath id="clip_1">
      <use xlink:href="#path_1" clip-rule="evenodd" fill-rule="evenodd" />
    </clipPath>
  </defs>
  <g id="delete" clip-path="url(#clip_1)">
    <path d="M512 0L512 0L512 512L0 512L0 0L512 0Z" id="delete" fill="none" stroke="none" />
    <path d="M147.051 194.544C220.21 194.091 293.337 194.091 366.956 194.091C366.956 195.828 367.024 197.107 366.946 198.376C364.789 233.633 362.607 268.889 360.449 304.146C358.618 334.081 356.73 364.013 355.034 393.956C354.322 406.533 348.85 411.996 336.185 411.998C283.352 412.004 230.52 412.018 177.688 411.953C174.733 411.949 171.779 411.258 168.408 410.778C161.619 406.944 159.346 401.219 158.932 394.03C156.514 352.123 153.849 310.23 151.316 268.329C149.838 243.888 148.449 219.442 147.051 194.544M214.961 321.5C214.961 296.037 214.981 270.574 214.944 245.111C214.935 239.213 211.903 235.627 207.098 235.523C202.209 235.417 198.98 238.97 198.974 244.763C198.941 277.715 198.94 310.667 198.975 343.619C198.982 349.498 202.114 353.028 206.995 352.982C211.827 352.937 214.885 349.359 214.943 343.469C215.013 336.48 214.961 329.49 214.961 321.5M299.039 291.5C299.039 308.642 299.019 325.784 299.05 342.926C299.061 349.272 301.974 352.905 306.952 352.982C311.955 353.06 315.027 349.417 315.032 343.163C315.056 310.544 315.054 277.924 315.033 245.305C315.029 239.046 311.987 235.445 306.939 235.522C301.986 235.599 299.062 239.256 299.049 245.565C299.02 260.543 299.039 275.522 299.039 291.5M264.076 239.903C261.874 236.003 258.498 234.656 254.357 236.036C250.101 237.454 248.966 240.941 248.972 245.157C249.023 277.796 248.999 310.435 249.004 343.075C249.004 344.073 248.916 345.101 249.115 346.064C250.002 350.341 252.617 352.942 257.039 352.916C261.46 352.89 264.055 350.258 264.887 345.974C265.106 344.847 264.997 343.65 264.997 342.485C265.001 310.346 265.01 278.206 264.975 246.066C264.973 244.262 264.611 242.458 264.076 239.903L264.076 239.903Z" id="Shape" fill="#8D0202" fill-rule="evenodd" stroke="none" />
    <path d="M383.472 141.649C383.999 152.153 384.39 162.453 384.509 172.757C384.55 176.308 382.404 178.219 378.721 178.118C378.222 178.104 377.722 178.123 377.222 178.123C296.123 178.113 215.025 178.103 133.454 178.113C131.812 175.928 129.751 173.769 129.631 171.507C129.214 163.697 129.309 155.846 129.518 148.018C129.782 138.118 136.149 132.046 146.154 132.018C167.144 131.959 188.135 132 209.938 132C209.938 127.862 209.889 123.943 209.947 120.025C210.104 109.393 217.246 102.093 227.877 102.033C247.208 101.924 266.541 101.994 285.873 102.005C293.175 102.009 298.668 105.128 302.525 112.227C303.484 119.148 304.087 125.448 304.701 131.858C310.86 131.858 316.937 131.858 323.014 131.858C337.749 131.905 352.484 132.036 367.218 131.964C374.556 131.928 380.016 134.699 383.472 141.649L383.472 141.649Z" id="Shape" fill="#AF0909" stroke="none" />
    <path d="M322.84 131.58C316.937 131.858 310.86 131.858 304.701 131.858C304.087 125.448 303.484 119.148 302.775 112.433C309.334 118.447 316 124.875 322.84 131.58L322.84 131.58Z" id="Shape" fill="#DB3C3E" stroke="none" />
    <path d="M214.961 322C214.961 329.49 215.013 336.48 214.943 343.469C214.885 349.359 211.827 352.937 206.995 352.982C202.114 353.028 198.982 349.498 198.975 343.619C198.94 310.667 198.941 277.715 198.974 244.763C198.98 238.97 202.209 235.417 207.098 235.523C211.903 235.627 214.935 239.213 214.944 245.111C214.981 270.574 214.961 296.037 214.961 322L214.961 322Z" id="Shape" fill="#FFFFFF" stroke="none" />
    <path d="M299.039 291C299.039 275.522 299.02 260.543 299.049 245.565C299.062 239.256 301.986 235.599 306.939 235.522C311.987 235.445 315.029 239.046 315.033 245.305C315.054 277.924 315.056 310.544 315.032 343.163C315.027 349.417 311.955 353.06 306.952 352.982C301.974 352.905 299.061 349.272 299.05 342.926C299.019 325.784 299.039 308.642 299.039 291L299.039 291Z" id="Shape" fill="#FFFFFF" stroke="none" />
    <path d="M264.246 240.278C264.611 242.458 264.973 244.262 264.975 246.066C265.01 278.206 265.001 310.346 264.997 342.485C264.997 343.65 265.106 344.847 264.887 345.974C264.055 350.258 261.46 352.89 257.039 352.916C252.617 352.942 250.002 350.341 249.115 346.064C248.916 345.101 249.004 344.073 249.004 343.075C248.999 310.435 249.023 277.796 248.972 245.157C248.966 240.941 250.101 237.454 254.357 236.036C258.498 234.656 261.874 236.003 264.246 240.278L264.246 240.278Z" id="Shape" fill="#FFFFFF" stroke="none" />
  </g>
</svg>