<?xml version="1.0" encoding="utf-8"?>
<svg width="512px" height="512px" viewBox="0 0 512 512" version="1.1" xmlns:xlink="http://www.w3.org/1999/xlink" xmlns="http://www.w3.org/2000/svg">
  <defs>
    <path d="M512 0L512 0L512 512L0 512L0 0L512 0Z" id="path_1" />
    <clipPath id="clip_1">
      <use xlink:href="#path_1" clip-rule="evenodd" fill-rule="evenodd" />
    </clipPath>
  </defs>
  <g id="user" clip-path="url(#clip_1)">
    <path d="M512 0L512 0L512 512L0 512L0 0L512 0Z" id="user" fill="none" stroke="none" />
    <path d="M162.535 1C169.489 3.12384 176.214 4.25487 182.654 6.78685C201.586 14.2299 216.17 26.6099 226.955 43.6826C233.872 54.6324 238.452 66.6006 239.835 79.382C242.009 99.4778 239.031 118.897 228.697 136.629C218.808 153.599 204.955 166.454 186.955 174.478C175.251 179.695 163.021 182.921 149.552 181.896C147.222 179.976 147.406 177.565 147.404 175.263C147.363 119.383 147.368 63.504 147.395 7.62476C147.396 5.63566 147.34 3.61503 148.696 1.398C153.357 1 157.714 1 162.535 1L162.535 1Z" id="Shape" fill="#003F8A" stroke="none" />
    <path d="M148.539 1C149.023 60.9694 149.045 120.939 149.083 181.365C128.49 182.746 110.385 175.981 94.1992 163.658C76.0537 149.843 64.2867 131.598 60.339 109.278C55.6877 82.9792 60.436 58.2424 77.0017 36.509C90.7209 18.5101 108.984 7.59172 130.723 2.164C132.619 1.69077 134.679 1.87657 136.831 1.37813C140.693 1 144.386 1 148.539 1L148.539 1Z" id="Shape" fill="#005ECE" stroke="none" />
    <path d="M118.417 513C122.65 497.172 127.358 481.36 131.936 465.511C138.669 442.206 145.29 418.869 152.002 395.557C153.551 390.178 155.275 384.848 157.121 379.158C160.262 377.926 161.484 380.405 163.019 381.925C177.429 396.193 191.7 410.602 206.35 425.129C220.914 439.861 235.397 454.176 249.754 468.616C251.26 470.131 253.015 471.451 254.013 473.819C239.213 479.658 223.776 483.276 208.628 487.842C185.388 494.847 161.977 501.285 138.641 507.973C133.564 509.428 128.497 510.92 123.213 512.698C121.611 513 120.222 513 118.417 513L118.417 513Z" id="Shape" fill="#FFEB99" stroke="none" />
    <path d="M150.298 372.466C128.985 372.894 108.003 372.973 87.0202 372.994C60.371 373.02 33.7215 372.945 7.07296 373.072C3.84834 373.087 2.90215 372.279 2.92147 368.973C3.04441 347.938 3.58718 326.945 10.0517 306.679C15.0642 290.965 22.4621 276.419 32.3317 263.124C45.3541 245.581 61.4289 231.431 80.6527 221.303C93.6615 214.449 107.493 209.339 122.233 206.852C131.154 205.347 140.097 204.753 149.502 204.084C151.794 206.026 151.593 208.443 151.595 210.748C151.634 262.579 151.631 314.41 151.603 366.24C151.602 368.234 151.655 370.257 150.298 372.466L150.298 372.466Z" id="Shape" fill="#005ECE" stroke="none" />
    <path d="M254.375 474.001C238.136 458.321 222.19 442.477 206.085 426.339C205.544 422.98 208.148 421.754 209.807 420.09C243.212 386.597 276.673 353.159 310.122 319.71C334.502 295.33 358.874 270.942 383.279 246.587C385.007 244.862 386.447 242.625 389.599 242.428C391.387 243.071 392.358 244.237 393.43 245.271C406.579 257.964 418.806 271.6 432.665 283.572C434.645 285.283 436.765 286.998 437.915 289.881C436.836 291.456 435.763 292.722 434.593 293.892C374.624 353.878 314.646 413.857 254.375 474.001L254.375 474.001Z" id="Shape" fill="#FFCD00" stroke="none" />
    <path d="M389.994 242.665C388.08 243.101 387.164 244.367 386.116 245.415C326.479 305.042 266.847 364.674 207.219 424.31C206.867 424.662 206.567 425.066 206.085 425.746C191.423 411.664 176.927 397.275 162.406 382.911C161.002 381.522 159.442 380.29 157.639 378.903C156.859 376.062 159.704 375.516 160.858 373.456C162.571 370.558 165.066 368.818 167.165 366.72C200.902 332.986 234.544 299.157 268.698 265.353C283.496 250.777 298.007 236.4 312.493 221.999C321.802 212.745 331.075 203.456 340.666 194.033C342.754 193.412 343.78 194.67 344.804 195.7C359.828 210.825 375.175 225.629 390.053 241.378C390.226 241.941 390.242 242.181 389.994 242.665L389.994 242.665Z" id="Shape" fill="#FFDA44" stroke="none" />
    <path d="M268.676 265.017C269.262 266.992 267.771 267.78 266.761 268.791C232.675 302.904 198.574 337.002 164.463 371.09C163.668 371.885 163.045 372.993 161.345 373.089C157.627 373.105 154.255 373.043 150.426 372.912C149.965 316.918 149.962 260.995 149.952 204.614C163.416 204.038 176.5 206.288 189.516 209.742C209.47 215.037 227.099 224.785 242.865 237.67C251.552 244.77 259.715 252.764 266.064 262.271C266.7 263.223 267.587 264.007 268.676 265.017L268.676 265.017Z" id="Shape" fill="#003F8A" stroke="none" />
    <path d="M389.891 243.224C389.729 242.909 389.817 242.495 389.786 242.286C389.414 240.104 390.845 239.027 391.988 237.883C414.423 215.415 436.851 192.939 459.346 170.531C459.937 169.943 460.59 169.431 461.699 168.999C478.047 185.379 494.045 201.826 510.138 218.372C486.812 241.692 462.692 265.805 438.263 290.077C421.223 275.453 405.915 259.212 389.891 243.224L389.891 243.224Z" id="Shape" fill="#005ECE" stroke="none" />
    <path d="M461.922 168.622C460.741 170.42 459.509 171.984 458.113 173.385C435.475 196.108 412.815 218.811 389.958 241.797C373.685 226.135 357.614 210.193 341.256 194.067C356.886 177.849 372.796 161.806 388.725 145.782C396.11 138.354 403.639 131.065 410.88 123.499C413.266 121.005 414.597 120.929 417.08 123.453C431.881 138.508 446.87 153.38 461.922 168.622L461.922 168.622Z" id="Shape" fill="#2488FF" stroke="none" />
  </g>
</svg>